<?xml version="1.0" encoding="UTF-8"?>
<svg id="Layer_1" data-name="Layer 1" xmlns="http://www.w3.org/2000/svg" viewBox="0 0 1366 768">
  <defs>
    <style>
      .cls-1 {
        stroke: #ff7bac;
      }

      .cls-1, .cls-2, .cls-3, .cls-4 {
        stroke-linecap: round;
        stroke-linejoin: round;
      }

      .cls-1, .cls-3 {
        stroke-width: 19px;
      }

      .cls-1, .cls-5 {
        fill: #ff7bac;
      }

      .cls-2 {
        stroke-width: 26px;
      }

      .cls-2, .cls-3 {
        fill: none;
        stroke: #5a9378;
      }

      .cls-4 {
        stroke: #fff;
        stroke-width: 9px;
      }

      .cls-6, .cls-7, .cls-5, .cls-8 {
        stroke-width: 0px;
      }

      .cls-7 {
        fill: #5a9378;
      }

      .cls-8 {
        fill: #fff;
      }
    </style>
  </defs>
  <circle class="cls-3" cx="695.07626" cy="435.86539" r="195.16365"/>
  <circle class="cls-2" cx="465.5" cy="149.5" r="64"/>
  <circle class="cls-2" cx="908.5" cy="149.5" r="64"/>
  <circle class="cls-4" cx="465.5" cy="149.5" r="64"/>
  <circle class="cls-4" cx="908.5" cy="149.5" r="64"/>
  <circle class="cls-8" cx="431" cy="118" r="22"/>
  <circle class="cls-8" cx="880" cy="118" r="22"/>
  <circle class="cls-8" cx="453" cy="140" r="13"/>
  <circle class="cls-8" cx="902" cy="140" r="13"/>
  <circle class="cls-6" cx="647" cy="207" r="13"/>
  <circle class="cls-6" cx="733" cy="207" r="13"/>
  <polygon class="cls-7" points="529.2108 106.79076 402.61696 108.82682 442.63489 82.21814 478.57951 78.72809 507.93643 90.79591 529.2108 106.79076"/>
  <polygon class="cls-7" points="972.23084 107 845.637 109.03605 885.65493 82.42737 921.59954 78.93733 950.95646 91.00515 972.23084 107"/>
  <circle class="cls-1" cx="694.09274" cy="430.63772" r="57.74783"/>
  <polygon class="cls-7" points="529.19115 194.49545 402.59731 192.45939 442.61524 219.06807 478.55986 222.55812 507.91678 210.4903 529.19115 194.49545"/>
  <polygon class="cls-7" points="972.21119 194.28621 845.61735 192.25016 885.63528 218.85884 921.57989 222.34888 950.93681 210.28106 972.21119 194.28621"/>
  <path class="cls-5" d="m777.50255,452.86269s96.49745,136.79207,137.49745,124.96469,52.65547-63.44367-30.17226-156.13553"/>
  <path class="cls-3" d="m1019.01063,265.25884c0,107.78591-149.4526,195.16365-333.81172,195.16365s-333.81172-87.37774-333.81172-195.16365"/>
  <path class="cls-3" d="m499.81748,436.73917c0-107.78589,87.37776-195.16361,195.16369-195.16361s195.16369,87.37772,195.16369,195.16361"/>
</svg>